<?xml version="1.0" encoding="utf-8" ?><svg xmlns="http://www.w3.org/2000/svg" xmlns:xlink="http://www.w3.org/1999/xlink" width="768" height="580" viewBox="200 150 768 580"><style>@media (prefers-color-scheme: dark) { .text-path { fill: #ffffff !important; } }</style><path fill="#0FACE2" d="M552.609 185.695C570.064 186.305 591.881 188.503 609.388 189.984C610.391 201.456 613.077 213.188 614.505 224.731C627.988 228.982 638.957 233.949 651.572 239.96C663.224 234.459 675.044 228.493 686.64 222.8C698.738 235.586 711.035 248.182 723.527 260.584C716.767 270.116 708.309 282.379 701.013 291.227C706.899 305.64 709.215 312.926 712.429 328.028L750.029 338.564C747.624 356.228 746.407 376.062 745.054 393.961C732.623 395.048 719.553 396.789 707.109 398.267C696.875 426.014 681.903 445.736 655.606 460.191C657.265 462.74 659.243 465.514 661.062 467.978C678.676 491.853 695.18 516.731 713.434 540.105C685.132 540.812 654.522 540.26 626.105 540.266L618.136 529.643L576.128 473.127C569.568 464.379 562.377 455.888 556.43 446.745C552.212 440.259 553.347 432.102 557.606 426C566.449 413.331 582.204 419.328 595.292 415.717C607.431 412.367 616.596 407.924 625.66 398.913C637.693 387.027 644.435 370.799 644.369 353.886C644.559 337.221 638.006 321.187 626.197 309.427C603.354 286.559 576.371 290.276 547.092 290.25L453.747 290.259C446.441 277.48 436.755 262.918 428.841 250.348C441.463 239.278 460.508 222.691 473.324 212.879C483.719 220.427 493.898 228.267 503.85 236.391C517.248 230 528.708 225.312 543.424 222.547C546.212 210.243 550.152 197.749 552.609 185.695Z"/><path fill="#0FACE2" d="M468.643 329.883C501.476 328.113 536.448 330.916 569.547 329.83C588.368 329.212 597.713 345.996 592.528 362.96C588.285 376.841 573.144 377.706 561.006 377.065C536.841 376.357 515.414 376.761 499.842 398.292C478.616 427.641 495.779 465.562 485.63 498.031C482.722 506.552 477.874 514.282 471.467 520.609C451.468 540.359 426.458 540.346 400.826 540.247L400.553 448.547C400.45 414.845 395.868 381.869 419.973 354.417C432.312 340.122 449.813 331.299 468.643 329.883Z"/><path class="text-path" fill="#060809" d="M257.347 582.363L304.307 582.397C312.649 582.395 325.025 581.606 332.857 583.195C349.134 586.497 344.578 602.827 342.278 613.264C338.248 631.547 336.309 645.602 315.258 648.781C319.876 660.915 325.683 673.829 331 685.676C323.674 685.867 315.896 685.767 308.533 685.796L306.267 680.094C301.837 669.647 297.353 659.224 292.813 648.824C283.731 648.661 274.332 648.808 265.226 648.833C262.295 661.113 259.52 673.43 256.901 685.781L234.671 685.71C237.867 674.702 240.793 659.27 243.28 647.785L257.347 582.363Z"/><path fill="white" d="M275.331 602.786C283.533 602.756 314.68 601.743 320.066 604.246C320.951 605.24 321.792 606.482 321.535 607.837C320.144 615.199 320.356 622.976 314.717 628.169C309.543 630.139 277.153 629.329 269.44 629.291C271.652 621.044 273.518 611.229 275.331 602.786Z"/><path fill="#0FACE2" d="M745.459 579.956L778.77 579.998C775.229 587.229 770.683 594.974 766.719 602.057C755.886 621.354 744.947 640.591 733.902 659.767C728.467 669.207 721.752 681.814 715.895 690.718C703.927 690.918 691.958 691.029 679.989 691.052C671.337 654.406 661.898 616.746 653.725 580.147C664.412 579.822 675.67 580.027 686.413 580.067C690.821 604.446 697.894 635.128 703.783 659.338C717.364 634.675 732.807 605.075 745.459 579.956Z"/><path class="text-path" fill="#060809" d="M539.627 608.697C548.547 608.211 557.644 608.506 566.583 608.465C573.61 608.433 581.132 607.891 588.094 608.746C590.582 609.051 593.408 609.68 595.542 611.041C597.967 612.588 599.7 615.495 600.262 618.284C601.505 624.442 590.709 672.566 587.108 678.074C584.125 682.638 580.192 684.443 575.018 685.499C565.606 686.406 555.81 685.912 546.35 685.89C538.845 685.873 530.813 686.385 523.376 685.486C521.235 685.227 519.125 684.882 517.324 683.601C514.826 681.826 513.429 679.573 512.992 676.529C511.918 669.05 522.714 620.792 526.977 615.045C530.217 610.68 534.562 609.487 539.627 608.697Z"/><path fill="white" d="M547.279 625.829C553.216 625.586 574.881 624.424 578.753 627.849C579.73 632.966 574.333 659.846 570.915 665.66C569.897 667.393 567.986 667.778 566.11 668.13C560.52 668.21 540.78 669.08 536.257 667.137C531.617 665.143 537.676 644.18 538.587 639.973C539.747 634.62 540.513 627.422 547.279 625.829Z"/><path fill="#0FACE2" d="M785.125 579.979L886.036 579.871C885.121 587.101 882.59 598.16 881.137 605.593L845.238 605.556C841.293 624.16 837.45 642.785 833.71 661.431C832.101 670.872 829.539 680.806 827.809 690.659L797.611 690.877C803.226 662.383 809.118 633.945 815.286 605.565C803.589 605.68 791.891 605.655 780.194 605.492C781.814 597.019 783.959 588.496 785.125 579.979Z"/><path class="text-path" fill="#060809" d="M368.9 608.691C377.425 608.275 387.834 609.094 395.957 608.481C440.354 605.132 425.088 621.258 420.069 653.659C402.501 654.235 382.456 653.843 364.689 653.846C364.257 655.688 361.587 665.282 363.514 666.119C370.788 669.279 385.205 667.968 393.035 667.917C400.306 667.982 407.683 667.895 414.963 667.874C413.512 674.038 412.267 679.415 411.245 685.653C401.693 686.357 391.788 685.88 382.189 685.882C373.176 685.883 363.717 686.463 354.78 685.485C352.016 685.183 348.596 684.466 346.275 682.879C344.438 681.622 343.743 679.3 343.338 677.206C341.648 668.473 351.841 621.768 356.985 614.722C359.872 610.768 364.362 609.539 368.9 608.691Z"/><path fill="white" d="M374.397 625.724C380.062 625.642 385.831 625.463 391.487 625.498C396.079 625.526 404.169 624.41 406.741 628.939C407.029 631.571 405.928 637.106 404.472 639.482C403.858 640.485 402.945 640.252 401.643 640.355L367.627 640.308C368.76 634.628 368.875 628.67 374.397 625.724Z"/><path class="text-path" fill="#060809" d="M452.15 608.654C470.766 607.967 493.053 608.506 511.945 608.52C510.598 613.65 509.395 620.186 508.28 625.471C497.17 625.682 486.028 625.642 474.915 625.631C470.768 625.626 466.166 624.947 462.073 625.463C460.163 625.703 458.397 626.392 457.23 627.991C456.002 629.671 454.887 633.502 455.285 635.63C456.62 642.769 494.917 635.371 501.685 640.74C503.661 642.307 504.459 644.763 504.697 647.193C505.342 653.781 500.746 675.291 496.538 680.236C493.112 684.26 488.495 685.384 483.448 685.774C465.297 686.264 442.309 686.074 424.145 685.572L427.861 667.964C444.082 667.747 460.411 668.152 476.621 668.082C485.425 668.044 485.801 655.199 483.186 654.613C469.404 651.529 451.246 657.026 438.019 651.601C432.007 649.135 435.683 636.689 436.686 632.113C439.802 620.537 437.984 611.568 452.15 608.654Z"/><path fill="#0FACE2" d="M896.731 580.017C906.557 579.826 916.97 579.997 926.838 580.003L904.195 690.904L874.597 690.795C875.719 681.959 878.406 670.543 880.25 661.593L890.775 610.382C892.76 600.689 895.283 589.73 896.731 580.017Z"/><path class="text-path" fill="#060809" d="M622.975 578.277C629.505 578.113 636.525 578.226 643.095 578.21L626.592 654.686C624.515 664.685 621.593 675.937 619.999 685.807C613.466 685.978 606.705 685.742 600.153 685.595C602.083 674.25 605.344 660.765 607.798 649.389C613.028 625.722 618.087 602.017 622.975 578.277Z"/></svg>